<svg xmlns="http://www.w3.org/2000/svg" viewBox="0 0 1024 1024" width="1024" height="1024"><title>bitonalPDF</title><rect x="100" y="100" width="824" height="824" rx="185" fill="#fff" stroke="#000" stroke-opacity=".14" stroke-width="4"/><g fill="#000" transform="translate(146.0 138.5) scale(3.0)"><g transform="scale(2)"><path d="M5 8H95L117 30V92H5Z" fill="#fff" stroke="#000" stroke-width="5" stroke-linejoin="round"/><path d="M95 8V30H117" fill="none" stroke="#000" stroke-width="5" stroke-linejoin="round"/><rect x="14" y="16" width="2" height="2"/><rect x="18" y="16" width="2" height="2"/><rect x="18" y="20" width="2" height="2"/><rect x="22" y="16" width="2" height="2"/><rect x="22" y="20" width="2" height="2"/><rect x="24" y="18" width="2" height="2"/><rect x="26" y="16" width="2" height="2"/><rect x="26" y="20" width="2" height="2"/><rect x="28" y="18" width="2" height="2"/><rect x="28" y="22" width="2" height="2"/><rect x="30" y="16" width="2" height="2"/><rect x="30" y="20" width="2" height="2"/><rect x="32" y="18" width="2" height="2"/><rect x="32" y="22" width="2" height="2"/><rect x="34" y="16" width="2" height="2"/><rect x="34" y="20" width="2" height="2"/><rect x="36" y="18" width="2" height="2"/><rect x="36" y="20" width="2" height="2"/><rect x="36" y="22" width="2" height="2"/><rect x="38" y="16" width="2" height="2"/><rect x="38" y="20" width="2" height="2"/><rect x="40" y="16" width="2" height="2"/><rect x="40" y="18" width="2" height="2"/><rect x="40" y="20" width="2" height="2"/><rect x="40" y="22" width="2" height="2"/><rect x="42" y="16" width="2" height="2"/><rect x="42" y="20" width="2" height="2"/><rect x="44" y="16" width="2" height="2"/><rect x="44" y="18" width="2" height="2"/><rect x="44" y="20" width="2" height="2"/><rect x="44" y="22" width="2" height="2"/><rect x="46" y="16" width="2" height="2"/><rect x="46" y="18" width="2" height="2"/><rect x="46" y="20" width="2" height="2"/><rect x="48" y="16" width="2" height="2"/><rect x="48" y="18" width="2" height="2"/><rect x="48" y="20" width="2" height="2"/><rect x="48" y="22" width="2" height="2"/><rect x="50" y="16" width="2" height="2"/><rect x="50" y="18" width="2" height="2"/><rect x="50" y="20" width="2" height="2"/><rect x="50" y="22" width="2" height="2"/><rect x="52" y="16" width="2" height="2"/><rect x="52" y="18" width="2" height="2"/><rect x="52" y="20" width="2" height="2"/><rect x="52" y="22" width="2" height="2"/><rect x="54" y="16" width="32" height="8"/><rect x="14" y="30" width="2" height="2"/><rect x="18" y="30" width="2" height="2"/><rect x="18" y="34" width="2" height="2"/><rect x="22" y="30" width="2" height="2"/><rect x="22" y="34" width="2" height="2"/><rect x="24" y="32" width="2" height="2"/><rect x="26" y="30" width="2" height="2"/><rect x="26" y="34" width="2" height="2"/><rect x="28" y="32" width="2" height="2"/><rect x="28" y="36" width="2" height="2"/><rect x="30" y="30" width="2" height="2"/><rect x="30" y="34" width="2" height="2"/><rect x="32" y="32" width="2" height="2"/><rect x="32" y="36" width="2" height="2"/><rect x="34" y="30" width="2" height="2"/><rect x="34" y="34" width="2" height="2"/><rect x="36" y="32" width="2" height="2"/><rect x="36" y="34" width="2" height="2"/><rect x="36" y="36" width="2" height="2"/><rect x="38" y="30" width="2" height="2"/><rect x="38" y="34" width="2" height="2"/><rect x="40" y="30" width="2" height="2"/><rect x="40" y="32" width="2" height="2"/><rect x="40" y="34" width="2" height="2"/><rect x="40" y="36" width="2" height="2"/><rect x="42" y="30" width="2" height="2"/><rect x="42" y="34" width="2" height="2"/><rect x="44" y="30" width="2" height="2"/><rect x="44" y="32" width="2" height="2"/><rect x="44" y="34" width="2" height="2"/><rect x="44" y="36" width="2" height="2"/><rect x="46" y="30" width="2" height="2"/><rect x="46" y="32" width="2" height="2"/><rect x="46" y="34" width="2" height="2"/><rect x="48" y="30" width="2" height="2"/><rect x="48" y="32" width="2" height="2"/><rect x="48" y="34" width="2" height="2"/><rect x="48" y="36" width="2" height="2"/><rect x="50" y="30" width="2" height="2"/><rect x="50" y="32" width="2" height="2"/><rect x="50" y="34" width="2" height="2"/><rect x="50" y="36" width="2" height="2"/><rect x="52" y="30" width="2" height="2"/><rect x="52" y="32" width="2" height="2"/><rect x="52" y="34" width="2" height="2"/><rect x="52" y="36" width="2" height="2"/><rect x="54" y="30" width="32" height="8"/><rect x="14" y="44" width="2" height="2"/><rect x="18" y="44" width="2" height="2"/><rect x="18" y="48" width="2" height="2"/><rect x="22" y="44" width="2" height="2"/><rect x="22" y="48" width="2" height="2"/><rect x="24" y="46" width="2" height="2"/><rect x="26" y="44" width="2" height="2"/><rect x="26" y="48" width="2" height="2"/><rect x="28" y="46" width="2" height="2"/><rect x="28" y="50" width="2" height="2"/><rect x="30" y="44" width="2" height="2"/><rect x="30" y="48" width="2" height="2"/><rect x="32" y="46" width="2" height="2"/><rect x="32" y="50" width="2" height="2"/><rect x="34" y="44" width="2" height="2"/><rect x="34" y="48" width="2" height="2"/><rect x="36" y="46" width="2" height="2"/><rect x="36" y="48" width="2" height="2"/><rect x="36" y="50" width="2" height="2"/><rect x="38" y="44" width="2" height="2"/><rect x="38" y="48" width="2" height="2"/><rect x="40" y="44" width="2" height="2"/><rect x="40" y="46" width="2" height="2"/><rect x="40" y="48" width="2" height="2"/><rect x="40" y="50" width="2" height="2"/><rect x="42" y="44" width="2" height="2"/><rect x="42" y="48" width="2" height="2"/><rect x="44" y="44" width="2" height="2"/><rect x="44" y="46" width="2" height="2"/><rect x="44" y="48" width="2" height="2"/><rect x="44" y="50" width="2" height="2"/><rect x="46" y="44" width="2" height="2"/><rect x="46" y="46" width="2" height="2"/><rect x="46" y="48" width="2" height="2"/><rect x="48" y="44" width="2" height="2"/><rect x="48" y="46" width="2" height="2"/><rect x="48" y="48" width="2" height="2"/><rect x="48" y="50" width="2" height="2"/><rect x="50" y="44" width="2" height="2"/><rect x="50" y="46" width="2" height="2"/><rect x="50" y="48" width="2" height="2"/><rect x="50" y="50" width="2" height="2"/><rect x="52" y="44" width="2" height="2"/><rect x="52" y="46" width="2" height="2"/><rect x="52" y="48" width="2" height="2"/><rect x="52" y="50" width="2" height="2"/><rect x="54" y="44" width="50" height="8"/><rect x="14" y="58" width="2" height="2"/><rect x="18" y="58" width="2" height="2"/><rect x="18" y="62" width="2" height="2"/><rect x="22" y="58" width="2" height="2"/><rect x="22" y="62" width="2" height="2"/><rect x="24" y="60" width="2" height="2"/><rect x="26" y="58" width="2" height="2"/><rect x="26" y="62" width="2" height="2"/><rect x="28" y="60" width="2" height="2"/><rect x="28" y="64" width="2" height="2"/><rect x="30" y="58" width="2" height="2"/><rect x="30" y="62" width="2" height="2"/><rect x="32" y="60" width="2" height="2"/><rect x="32" y="64" width="2" height="2"/><rect x="34" y="58" width="2" height="2"/><rect x="34" y="62" width="2" height="2"/><rect x="36" y="60" width="2" height="2"/><rect x="36" y="62" width="2" height="2"/><rect x="36" y="64" width="2" height="2"/><rect x="38" y="58" width="2" height="2"/><rect x="38" y="62" width="2" height="2"/><rect x="40" y="58" width="2" height="2"/><rect x="40" y="60" width="2" height="2"/><rect x="40" y="62" width="2" height="2"/><rect x="40" y="64" width="2" height="2"/><rect x="42" y="58" width="2" height="2"/><rect x="42" y="62" width="2" height="2"/><rect x="44" y="58" width="2" height="2"/><rect x="44" y="60" width="2" height="2"/><rect x="44" y="62" width="2" height="2"/><rect x="44" y="64" width="2" height="2"/><rect x="46" y="58" width="2" height="2"/><rect x="46" y="60" width="2" height="2"/><rect x="46" y="62" width="2" height="2"/><rect x="48" y="58" width="2" height="2"/><rect x="48" y="60" width="2" height="2"/><rect x="48" y="62" width="2" height="2"/><rect x="48" y="64" width="2" height="2"/><rect x="50" y="58" width="2" height="2"/><rect x="50" y="60" width="2" height="2"/><rect x="50" y="62" width="2" height="2"/><rect x="50" y="64" width="2" height="2"/><rect x="52" y="58" width="2" height="2"/><rect x="52" y="60" width="2" height="2"/><rect x="52" y="62" width="2" height="2"/><rect x="52" y="64" width="2" height="2"/><rect x="54" y="58" width="50" height="8"/><rect x="14" y="72" width="2" height="2"/><rect x="18" y="72" width="2" height="2"/><rect x="18" y="76" width="2" height="2"/><rect x="22" y="72" width="2" height="2"/><rect x="22" y="76" width="2" height="2"/><rect x="24" y="74" width="2" height="2"/><rect x="26" y="72" width="2" height="2"/><rect x="26" y="76" width="2" height="2"/><rect x="28" y="74" width="2" height="2"/><rect x="28" y="78" width="2" height="2"/><rect x="30" y="72" width="2" height="2"/><rect x="30" y="76" width="2" height="2"/><rect x="32" y="74" width="2" height="2"/><rect x="32" y="78" width="2" height="2"/><rect x="34" y="72" width="2" height="2"/><rect x="34" y="76" width="2" height="2"/><rect x="36" y="74" width="2" height="2"/><rect x="36" y="76" width="2" height="2"/><rect x="36" y="78" width="2" height="2"/><rect x="38" y="72" width="2" height="2"/><rect x="38" y="76" width="2" height="2"/><rect x="40" y="72" width="2" height="2"/><rect x="40" y="74" width="2" height="2"/><rect x="40" y="76" width="2" height="2"/><rect x="40" y="78" width="2" height="2"/><rect x="42" y="72" width="2" height="2"/><rect x="42" y="76" width="2" height="2"/><rect x="44" y="72" width="2" height="2"/><rect x="44" y="74" width="2" height="2"/><rect x="44" y="76" width="2" height="2"/><rect x="44" y="78" width="2" height="2"/><rect x="46" y="72" width="2" height="2"/><rect x="46" y="74" width="2" height="2"/><rect x="46" y="76" width="2" height="2"/><rect x="48" y="72" width="2" height="2"/><rect x="48" y="74" width="2" height="2"/><rect x="48" y="76" width="2" height="2"/><rect x="48" y="78" width="2" height="2"/><rect x="50" y="72" width="2" height="2"/><rect x="50" y="74" width="2" height="2"/><rect x="50" y="76" width="2" height="2"/><rect x="50" y="78" width="2" height="2"/><rect x="52" y="72" width="2" height="2"/><rect x="52" y="74" width="2" height="2"/><rect x="52" y="76" width="2" height="2"/><rect x="52" y="78" width="2" height="2"/><rect x="54" y="72" width="10" height="8"/></g><path transform="translate(5.00 236) scale(0.04669 -0.04669)" d="M600 230C600 387 493 470 384 470C319 470 263 441 227 389V780H54V0H227V71C263 19 319 -10 384 -10C493 -10 600 73 600 230ZM418 230C418 168 374 126 321 126C275 126 227 164 227 230C227 296 275 334 321 334C374 334 418 292 418 230Z"/><path transform="translate(34.46 236) scale(0.04669 -0.04669)" d="M43 627C43 574 86 538 140 538C195 538 238 574 238 627C238 681 195 717 140 717C86 717 43 681 43 627ZM57 460V0H223V460Z"/><path transform="translate(47.58 236) scale(0.04669 -0.04669)" d="M5 460V320H88V0H253V320H336V460H253V620H88V460Z"/><path transform="translate(63.50 236) scale(0.04669 -0.04669)" d="M31 230C31 83 146 -10 301 -10C456 -10 572 83 572 230C572 377 456 471 301 471C146 471 31 377 31 230ZM209 230C209 294 252 331 301 331C351 331 394 294 394 230C394 166 351 130 301 130C252 130 209 166 209 230Z"/><path transform="translate(91.65 236) scale(0.04669 -0.04669)" d="M354 280V0H535V298C535 407 488 471 369 471C299 471 254 441 228 392V460H55V0H228V280C228 330 254 355 296 355C341 355 354 328 354 280Z"/><path transform="translate(119.20 236) scale(0.04669 -0.04669)" d="M112 309C130 320 199 346 257 346C314 346 339 321 339 281V249C306 266 257 277 203 277C87 277 22 223 22 135C22 40 98 -10 187 -10C254 -10 312 16 339 64V0H504V322C504 419 407 474 281 474C194 474 115 447 57 422ZM196 144C196 173 214 188 259 188C287 188 315 183 338 173C332 121 293 97 252 97C221 97 196 113 196 144Z"/><path transform="translate(145.16 236) scale(0.04669 -0.04669)" d="M55 780V0H228V780Z"/><path transform="translate(158.32 236) scale(0.04669 -0.04669)" d="M80 700V0H165V280H270C405 280 508 361 508 490C508 619 405 700 270 700ZM270 620C360 620 423 576 423 490C423 404 360 360 270 360H165V620Z"/><path transform="translate(183.91 236) scale(0.04669 -0.04669)" d="M290 0C494 0 640 141 640 350C640 559 494 700 290 700H80V0ZM290 615C448 615 555 513 555 350C555 187 448 85 290 85H165V615Z"/><path transform="translate(215.66 236) scale(0.04669 -0.04669)" d="M80 700V0H165V340H430V420H165V620H440V700Z"/></g></svg>